<?xml version="1.0" encoding="utf-8"?>
<!-- Generator: Adobe Illustrator 20.1.0, SVG Export Plug-In . SVG Version: 6.00 Build 0)  -->
<svg version="1.1" id="Layer_1" xmlns="http://www.w3.org/2000/svg" xmlns:xlink="http://www.w3.org/1999/xlink" x="0px" y="0px"
	 width="200px" height="71.75px" viewBox="0 0 200 71.75" style="enable-background:new 0 0 200 71.75;" xml:space="preserve">
<g>
	<path d="M29.006,0.253c-0.195,0.332-0.393,0.663-0.584,0.998c-2.567,4.502-4.644,9.207-5.875,14.258
		c-0.756,3.104-1.109,6.245-0.881,9.446c0.552,7.74,5.785,13.898,13.358,15.68c3.545,0.834,7.132,0.86,10.741,0.578
		c5.453-0.426,10.669-1.962,15.915-3.355c24.527-6.512,49.054-13.028,73.579-19.545c21.263-5.65,42.526-11.305,63.789-16.957
		c0.111-0.03,0.226-0.048,0.375,0.011c-0.168,0.077-0.334,0.157-0.503,0.229c-45.915,19.648-91.829,39.297-137.746,58.939
		c-5.349,2.288-10.67,4.648-16.197,6.491c-4.774,1.592-9.622,2.885-14.616,3.562c-4.83,0.655-9.653,0.756-14.421-0.475
		C9.934,68.562,5.368,65.128,2.472,59.605c-1.801-3.435-2.277-7.153-2.07-10.977c0.304-5.594,1.992-10.82,4.294-15.876
		c2.719-5.972,6.361-11.367,10.371-16.529c4.288-5.52,8.973-10.699,13.683-15.855c0.057-0.062,0.121-0.117,0.182-0.175
		C28.957,0.213,28.982,0.233,29.006,0.253z"/>
</g>
<g>
</g>
<g>
</g>
<g>
</g>
<g>
</g>
<g>
</g>
<g>
</g>
</svg>
